<svg width="133" height="112" viewBox="0 0 133 112" fill="none" xmlns="http://www.w3.org/2000/svg">
<path d="M51.5 30.8838C51.5 29.7792 52.3954 28.8838 53.5 28.8838H100C101.105 28.8838 102 29.7792 102 30.8838V58.8838C102 59.9884 101.105 60.8838 100 60.8838H53.5C52.3954 60.8838 51.5 59.9884 51.5 58.8838V30.8838Z" fill="#313A4E" stroke="#D5DAE3" stroke-width="2"/>
<path d="M25.5 62.8838C25.5 61.7792 26.3954 60.8838 27.5 60.8838H129.5C130.605 60.8838 131.5 61.7792 131.5 62.8838V91.8838C131.5 92.9884 130.605 93.8838 129.5 93.8838H27.5C26.3954 93.8838 25.5 92.9884 25.5 91.8838V62.8838Z" fill="#313A4E" stroke="#D5DAE3" stroke-width="2"/>
<path d="M30.5 98.3838C30.5 91.4802 36.0964 85.8838 43 85.8838C49.9036 85.8838 55.5 91.4802 55.5 98.3838C55.5 105.287 49.9036 110.884 43 110.884C36.0964 110.884 30.5 105.287 30.5 98.3838Z" fill="#313A4E" stroke="#D5DAE3" stroke-width="2"/>
<path d="M101.5 98.3838C101.5 91.4802 107.096 85.8838 114 85.8838C120.904 85.8838 126.5 91.4802 126.5 98.3838C126.5 105.287 120.904 110.884 114 110.884C107.096 110.884 101.5 105.287 101.5 98.3838Z" fill="#313A4E" stroke="#D5DAE3" stroke-width="2"/>
<rect x="54.5" y="1.88379" width="30" height="27" rx="2" fill="#313A4E" stroke="#D5DAE3" stroke-width="2"/>
<path d="M64.3223 2.17285L64.3223 2.17285H74.4112L74.4112 15.7951L70.5667 12.9117C69.8556 12.3784 68.8778 12.3784 68.1667 12.9117L64.3223 15.7951L64.3223 2.17285Z" fill="#D5DAE3" stroke="#D5DAE3" stroke-width="2"/>
<path d="M64.3223 29.373L64.3223 29.373H74.4112L74.4112 42.9953L70.5667 40.1119C69.8556 39.5786 68.8778 39.5786 68.1667 40.1119L64.3223 42.9953L64.3223 29.373Z" fill="#D5DAE3" stroke="#D5DAE3" stroke-width="2"/>
<path d="M25.5 69.3838V43.8838C25.5 42.2269 24.1569 40.8838 22.5 40.8838H1" stroke="#D5DAE3" stroke-width="2" stroke-linecap="round"/>
</svg>
