<svg width="121" height="103" viewBox="0 0 121 103" fill="none" xmlns="http://www.w3.org/2000/svg">
<path d="M41.0977 2C41.0977 1.44772 41.5454 1 42.0977 1H45.8236C46.3759 1 46.8236 1.44771 46.8236 2V45.3214C46.8236 45.8737 46.3759 46.3214 45.8236 46.3214H42.0977C41.5454 46.3214 41.0977 45.8737 41.0977 45.3214V2Z" stroke="#D5DAE3" stroke-width="2"/>
<path d="M37.2346 46.3896L50.6865 46.3896L50.6865 53.0813L37.2346 53.0813L37.2346 46.3896Z" fill="#D5DAE3" stroke="#D5DAE3" stroke-width="2"/>
<path d="M64.2751 46.3896L119.254 46.3896V53.0813L64.2751 53.0813L64.2751 46.3896Z" stroke="#D5DAE3" stroke-width="2"/>
<path d="M72.8567 100.426L70.1292 53.1494H112.445L110.172 100.416C110.147 100.949 109.707 101.368 109.174 101.368H73.855C73.3251 101.368 72.8872 100.955 72.8567 100.426Z" stroke="#D5DAE3" stroke-width="2"/>
<path d="M30.4862 53.9245C30.6093 53.4645 31.0223 53.1494 31.4813 53.1494H57.2565C57.7381 53.1494 58.1277 53.4783 58.2101 53.9234C59.0834 58.6377 61.3996 72.5624 60.3076 81.9722C59.5971 88.0949 56.9268 96.761 55.909 99.9139C55.7956 100.265 55.4916 100.514 55.122 100.556C50.8346 101.041 36.5957 102.44 27.1786 100.898C19.7944 99.6894 10.0147 95.7921 4.673 93.4941C3.95731 93.1862 3.83158 92.0652 4.64291 91.6024C7.07554 90.2147 10.3831 88.1745 13.5372 85.7272C16.6774 83.2907 19.7349 80.3979 21.5975 77.2899C25.967 69.9987 29.3748 58.0763 30.4862 53.9245Z" stroke="#D5DAE3" stroke-width="2"/>
<line x1="37.2346" y1="60.8076" x2="48.755" y2="60.8076" stroke="#D5DAE3" stroke-width="2" stroke-linecap="round"/>
<path d="M17.9328 98.1091C17.9328 98.1091 23.3163 95.3366 26.0941 92.713C28.8359 90.1234 31.8887 84.9873 31.8887 84.9873" stroke="#D5DAE3" stroke-width="2" stroke-linecap="round"/>
<path d="M31.2466 101.015C31.2466 101.015 36.9055 96.7546 39.6148 93.1963C42.0445 90.0051 44.5359 84.1815 44.5359 84.1815" stroke="#D5DAE3" stroke-width="2" stroke-linecap="round"/>
<circle cx="110.596" cy="34.7671" r="4.79446" fill="#D5DAE3" stroke="#D5DAE3" stroke-width="2"/>
<circle cx="90.3159" cy="32.8344" r="5.7602" fill="#D5DAE3" stroke="#D5DAE3" stroke-width="2"/>
<mask id="path-11-inside-1_336_13228" fill="white">
<path d="M73.9671 47.3218C72.8626 47.3218 71.9388 46.4074 72.2608 45.3509C72.3244 45.1424 72.3981 44.9368 72.4817 44.7348C72.8215 43.9146 73.3194 43.1694 73.9472 42.5416C74.5749 41.9139 75.3201 41.4159 76.1403 41.0762C76.9605 40.7365 77.8396 40.5616 78.7273 40.5616C79.6151 40.5616 80.4942 40.7365 81.3144 41.0762C82.1346 41.4159 82.8798 41.9139 83.5075 42.5416C84.1353 43.1694 84.6332 43.9146 84.973 44.7348C85.0566 44.9368 85.1303 45.1424 85.1938 45.3509C85.5159 46.4074 84.5921 47.3218 83.4875 47.3218L78.7273 47.3218L73.9671 47.3218Z"/>
</mask>
<path d="M73.9671 47.3218C72.8626 47.3218 71.9388 46.4074 72.2608 45.3509C72.3244 45.1424 72.3981 44.9368 72.4817 44.7348C72.8215 43.9146 73.3194 43.1694 73.9472 42.5416C74.5749 41.9139 75.3201 41.4159 76.1403 41.0762C76.9605 40.7365 77.8396 40.5616 78.7273 40.5616C79.6151 40.5616 80.4942 40.7365 81.3144 41.0762C82.1346 41.4159 82.8798 41.9139 83.5075 42.5416C84.1353 43.1694 84.6332 43.9146 84.973 44.7348C85.0566 44.9368 85.1303 45.1424 85.1938 45.3509C85.5159 46.4074 84.5921 47.3218 83.4875 47.3218L78.7273 47.3218L73.9671 47.3218Z" fill="#D5DAE3" stroke="#D5DAE3" stroke-width="4" mask="url(#path-11-inside-1_336_13228)"/>
<path d="M97.1446 46.2412C96.5728 46.2412 96.2167 45.8 96.2649 45.3531L95.2707 45.2458L96.2649 45.3531C96.2968 45.0573 96.3338 44.7824 96.3746 44.555C96.4187 44.3097 96.4568 44.1813 96.4728 44.1426C96.6895 43.6195 97.0071 43.1442 97.4075 42.7438C97.8078 42.3435 98.2832 42.0259 98.8063 41.8092C99.3294 41.5925 99.89 41.481 100.456 41.481C101.022 41.481 101.583 41.5925 102.106 41.8092C102.629 42.0259 103.105 42.3435 103.505 42.7438C103.905 43.1442 104.223 43.6195 104.44 44.1426C104.456 44.1813 104.494 44.3097 104.538 44.555C104.579 44.7824 104.616 45.0573 104.648 45.3531C104.696 45.8 104.34 46.2412 103.768 46.2412L100.456 46.2412L97.1446 46.2412Z" fill="#D5DAE3" stroke="#D5DAE3" stroke-width="2"/>
<path d="M78.7268 79.9406V46.3555H104.319V79.9833C104.319 80.4095 104.185 80.8255 103.908 81.1492C103.228 81.9425 101.813 83.3962 100.456 83.5366C98.2686 83.7629 97.8211 80.4869 95.6273 80.6394C93.6564 80.7763 93.4557 83.556 91.4801 83.5366C89.5319 83.5174 89.3659 80.7009 87.4185 80.6394C85.3798 80.5749 85.1124 83.5366 83.0727 83.5366C81.587 83.5366 79.9599 81.9995 79.1857 81.1645C78.878 80.8327 78.7268 80.393 78.7268 79.9406Z" fill="#313A4E" stroke="#D5DAE3" stroke-width="2"/>
<path d="M119.288 48.2871C119.288 54.4343 116.389 60.3296 111.227 64.6763C106.065 69.023 99.0644 71.4649 91.7647 71.4649C84.4649 71.4649 77.4642 69.023 72.3025 64.6763C67.1408 60.3296 64.241 54.4343 64.241 48.2871" stroke="#D5DAE3" stroke-width="2"/>
</svg>
