<svg width="20" height="20" viewBox="0 0 20 20" fill="none" xmlns="http://www.w3.org/2000/svg">
<g clip-path="url(#clip0_1936_6061)">
<path d="M10 1.6665C8.24339 1.66642 6.55772 2.35964 5.30938 3.5955C4.06104 4.83136 3.35091 6.50997 3.33334 8.2665C3.33334 12.8332 9.20834 17.9165 9.45834 18.1332C9.60929 18.2623 9.80138 18.3332 10 18.3332C10.1986 18.3332 10.3907 18.2623 10.5417 18.1332C10.8333 17.9165 16.6667 12.8332 16.6667 8.2665C16.6491 6.50997 15.939 4.83136 14.6906 3.5955C13.4423 2.35964 11.7566 1.66642 10 1.6665ZM10 10.8332C9.42315 10.8332 8.85924 10.6621 8.3796 10.3416C7.89995 10.0211 7.52612 9.56562 7.30536 9.03266C7.08461 8.49971 7.02685 7.91327 7.13939 7.34749C7.25193 6.78171 7.52971 6.26201 7.93762 5.85411C8.34552 5.44621 8.86522 5.16842 9.431 5.05588C9.99677 4.94334 10.5832 5.0011 11.1162 5.22186C11.6491 5.44261 12.1046 5.81645 12.4251 6.29609C12.7456 6.77573 12.9167 7.33964 12.9167 7.9165C12.9167 8.69005 12.6094 9.43192 12.0624 9.9789C11.5154 10.5259 10.7736 10.8332 10 10.8332Z" fill="#E8EBF2"/>
</g>
<defs>
<clipPath id="clip0_1936_6061">
<rect width="20" height="20" fill="white"/>
</clipPath>
</defs>
</svg>
