<svg width="36" height="39" viewBox="0 0 36 39" fill="none" xmlns="http://www.w3.org/2000/svg">
<path d="M33 20.2998V10C33 6.68629 30.3137 4 27 4H7C3.68629 4 1 6.68629 1 10V27C1 30.3137 3.68629 33 7 33H19.6811" stroke="#FDFDFD" stroke-width="2"/>
<path d="M1 10C1 6.68629 3.68629 4 7 4H27C30.3137 4 33 6.68629 33 10V14H1V10Z" fill="#FDFDFD"/>
<path d="M8 1C8 0.447715 8.44772 0 9 0C9.55228 0 10 0.447715 10 1V10H8V1Z" fill="#FDFDFD"/>
<path d="M22 1C22 0.447715 22.4477 0 23 0C23.5523 0 24 0.447715 24 1V10H22V1Z" fill="#FDFDFD"/>
<path d="M26.475 38V24H31.3654C33.3727 24 35 25.6273 35 27.6346V27.6346C35 29.642 33.3727 31.2692 31.3654 31.2692H24M29.5 34.2308H24" stroke="#FDFDFD" stroke-width="2" stroke-linecap="round" stroke-linejoin="round"/>
</svg>
