<svg width="160" height="109" viewBox="0 0 160 109" fill="none" xmlns="http://www.w3.org/2000/svg">
<mask id="path-1-inside-1_336_13135" fill="white">
<path fill-rule="evenodd" clip-rule="evenodd" d="M127.789 57.4429H127.791C127.898 51.7775 132.524 47.2178 138.215 47.2178C143.973 47.2178 148.641 51.8857 148.641 57.6438C148.641 63.0638 144.505 67.5178 139.217 68.0222V76.2902H139.217V84.9318C139.217 89.35 135.636 92.9318 131.217 92.9318H69.4235C65.0052 92.9318 61.4235 89.35 61.4235 84.9318V77.8939V76.2902V68.0223C56.1357 67.5178 52 63.0638 52 57.6439C52 51.8858 56.6679 47.2179 62.426 47.2179C68.117 47.2179 72.743 51.7775 72.8501 57.4429H72.852V57.6227L72.852 57.6439L72.852 57.665V76.2902H127.789V57.4429Z"/>
</mask>
<path d="M127.791 57.4429V59.4429H129.753L129.791 57.4807L127.791 57.4429ZM127.789 57.4429V55.4429H125.789V57.4429H127.789ZM139.217 68.0222L139.027 66.0313L137.217 66.2039V68.0222H139.217ZM139.217 76.2902H137.217V78.2902H139.217V76.2902ZM139.217 76.2902H141.217V74.2902H139.217V76.2902ZM61.4235 68.0223H63.4235V66.204L61.6134 66.0314L61.4235 68.0223ZM72.8501 57.4429L70.8505 57.4807L70.8876 59.4429H72.8501V57.4429ZM72.852 57.4429H74.852V55.4429H72.852V57.4429ZM72.852 57.6227H70.852L70.852 57.6247L72.852 57.6227ZM72.852 57.6439L74.852 57.6459L74.852 57.6419L72.852 57.6439ZM72.852 57.665L70.852 57.663V57.665H72.852ZM72.852 76.2902H70.852V78.2902H72.852V76.2902ZM127.789 76.2902V78.2902H129.789V76.2902H127.789ZM127.791 55.4429H127.789V59.4429H127.791V55.4429ZM138.215 45.2178C131.432 45.2178 125.919 50.6521 125.791 57.4051L129.791 57.4807C129.877 52.9028 133.616 49.2178 138.215 49.2178V45.2178ZM150.641 57.6438C150.641 50.7811 145.078 45.2178 138.215 45.2178V49.2178C142.869 49.2178 146.641 52.9902 146.641 57.6438H150.641ZM139.407 70.0132C145.712 69.4118 150.641 64.1046 150.641 57.6438H146.641C146.641 62.0229 143.299 65.6238 139.027 66.0313L139.407 70.0132ZM141.217 76.2902V68.0222H137.217V76.2902H141.217ZM139.217 78.2902H139.217V74.2902H139.217V78.2902ZM137.217 76.2902V84.9318H141.217V76.2902H137.217ZM137.217 84.9318C137.217 88.2455 134.531 90.9318 131.217 90.9318V94.9318C136.74 94.9318 141.217 90.4546 141.217 84.9318H137.217ZM131.217 90.9318H69.4235V94.9318H131.217V90.9318ZM69.4235 90.9318C66.1098 90.9318 63.4235 88.2455 63.4235 84.9318H59.4235C59.4235 90.4546 63.9006 94.9318 69.4235 94.9318V90.9318ZM63.4235 84.9318V77.8939H59.4235V84.9318H63.4235ZM63.4235 77.8939V76.2902H59.4235V77.8939H63.4235ZM63.4235 76.2902V68.0223H59.4235V76.2902H63.4235ZM61.6134 66.0314C57.3421 65.6239 54 62.023 54 57.6439H50C50 64.1047 54.9293 69.4118 61.2335 70.0133L61.6134 66.0314ZM54 57.6439C54 52.9903 57.7724 49.2179 62.426 49.2179V45.2179C55.5633 45.2179 50 50.7812 50 57.6439H54ZM62.426 49.2179C67.0251 49.2179 70.7639 52.9029 70.8505 57.4807L74.8498 57.4051C74.722 50.6521 69.2089 45.2179 62.426 45.2179V49.2179ZM72.8501 59.4429H72.852V55.4429H72.8501V59.4429ZM70.852 57.4429V57.6227H74.852V57.4429H70.852ZM70.852 57.6247L70.852 57.6459L74.852 57.6419L74.852 57.6208L70.852 57.6247ZM70.852 57.6419L70.852 57.663L74.852 57.667L74.852 57.6459L70.852 57.6419ZM70.852 57.665V76.2902H74.852V57.665H70.852ZM72.852 78.2902H127.789V74.2902H72.852V78.2902ZM125.789 57.4429V76.2902H129.789V57.4429H125.789Z" fill="#D5DAE3" mask="url(#path-1-inside-1_336_13135)"/>
<path d="M72.8519 77.2891H71.8519V76.2891C71.8519 68.7606 77.955 62.6576 85.4834 62.6576H115.157C122.686 62.6576 128.789 68.7606 128.789 76.2891V77.2891H127.789H72.8519Z" stroke="#D5DAE3" stroke-width="2"/>
<path d="M64.8319 47.7178V47.7178C64.8319 31.8276 77.7135 18.946 93.6037 18.946H107.037C122.927 18.946 135.809 31.8276 135.809 47.7178V47.7178" stroke="#D5DAE3" stroke-width="2"/>
<path d="M70.4362 91.873V102.884C70.4362 103.437 70.8839 103.884 71.4362 103.884H75.0087C75.4606 103.884 75.8564 103.581 75.9742 103.145L79.0158 91.873" stroke="#D5DAE3" stroke-width="2"/>
<path d="M128.777 91.873V102.884C128.777 103.437 128.33 103.884 127.777 103.884H124.205C123.753 103.884 123.357 103.581 123.239 103.145L120.198 91.873" stroke="#D5DAE3" stroke-width="2"/>
<path d="M14 63.8838V63.8838H64V103.884H14L14 63.8838Z" fill="#313A4E" stroke="#D5DAE3" stroke-width="2"/>
<path d="M12 61.8838L66 61.8838V72.8838H12L12 61.8838Z" fill="#313A4E" stroke="#D5DAE3" stroke-width="2"/>
<path d="M18 72.8838C18 72.3315 18.4477 71.8838 19 71.8838H30C30.5523 71.8838 31 72.3315 31 72.8838V85.0728C31 85.8597 30.1333 86.3383 29.4673 85.9192L25.0327 83.1281C24.7071 82.9232 24.2929 82.9232 23.9673 83.1281L19.5327 85.9192C18.8667 86.3383 18 85.8597 18 85.0728V72.8838Z" fill="#D5DAE3"/>
<rect x="4" y="10.8838" width="68.2703" height="40.1622" rx="3" fill="#313A4E" stroke="#D5DAE3" stroke-width="2"/>
<rect x="36.3243" y="51.6406" width="3.62162" height="7.83784" stroke="#D5DAE3" stroke-width="2"/>
<mask id="path-12-inside-2_336_13135" fill="white">
<rect x="25.4865" y="59.0732" width="25.2973" height="2.81081" rx="1"/>
</mask>
<rect x="25.4865" y="59.0732" width="25.2973" height="2.81081" rx="1" stroke="#D5DAE3" stroke-width="2.81081" mask="url(#path-12-inside-2_336_13135)"/>
<rect x="31.1081" y="46.4248" width="14.0541" height="1.40541" rx="0.702703" fill="#D5DAE3"/>
</svg>
