<svg width="44" height="37" viewBox="0 0 44 37" fill="none" xmlns="http://www.w3.org/2000/svg">
<path fill-rule="evenodd" clip-rule="evenodd" d="M25.5909 9C23.3818 9 21.5909 10.7909 21.5909 13V25C21.5909 27.2091 23.3818 29 25.5909 29H39.4091C41.6183 29 43.4091 27.2091 43.4091 25V13C43.4091 10.7909 41.6183 9 39.4091 9H25.5909ZM27.7272 21.2725C29.1079 21.2725 30.2272 20.1532 30.2272 18.7725C30.2272 17.3917 29.1079 16.2725 27.7272 16.2725C26.3465 16.2725 25.2272 17.3917 25.2272 18.7725C25.2272 20.1532 26.3465 21.2725 27.7272 21.2725Z" fill="#FDFDFD"/>
<rect x="1.59094" y="1" width="38" height="35" rx="2" stroke="#FDFDFD" stroke-width="2"/>
</svg>
