<svg width="24" height="24" viewBox="0 0 24 24" fill="none" xmlns="http://www.w3.org/2000/svg">
<g clip-path="url(#clip0_1942_6070)">
<path d="M2.00001 6.6C2.0053 10.6827 3.6295 14.5967 6.51641 17.4836C9.40332 20.3705 13.3173 21.9947 17.4 22C18.62 22 19.79 21.5154 20.6527 20.6527C21.5154 19.79 22 18.62 22 17.4C22.002 17.1417 21.9785 16.8838 21.93 16.63C21.8937 16.3847 21.8334 16.1435 21.75 15.91C21.6924 15.7458 21.5929 15.5994 21.4613 15.4854C21.3298 15.3714 21.1708 15.2937 21 15.26L15 13.89C14.8371 13.8531 14.6676 13.8575 14.5069 13.9029C14.3462 13.9484 14.1995 14.0333 14.08 14.15C13.94 14.28 13.93 14.29 13.29 15.52C11.1292 14.535 9.39385 12.8068 8.40001 10.65C9.64001 10 9.65001 9.99 9.78001 9.85C9.89672 9.73056 9.98166 9.58379 10.0271 9.42308C10.0725 9.26238 10.0769 9.09286 10.04 8.93L8.67001 2.93C8.63165 2.7647 8.55186 2.61187 8.43815 2.48591C8.32444 2.35995 8.18054 2.265 8.02001 2.21C7.78265 2.1256 7.53839 2.06203 7.29001 2.02C7.03868 1.97976 6.78454 1.95969 6.53001 1.96C5.31523 1.97844 4.15707 2.47671 3.30836 3.34603C2.45964 4.21535 1.9893 5.38513 2.00001 6.6ZM20 17.4C19.9974 18.0888 19.7226 18.7485 19.2356 19.2356C18.7486 19.7226 18.0888 19.9974 17.4 20C13.8469 19.9974 10.4401 18.5847 7.9277 16.0723C5.41529 13.5599 4.00266 10.1531 4.00001 6.6C4.00264 5.91125 4.27742 5.25146 4.76444 4.76443C5.25146 4.27741 5.91126 4.00263 6.60001 4C6.71001 4 6.82001 4 6.93001 4L8.00001 8.64L7.45001 8.93C6.58001 9.38 5.95001 9.71 6.29001 10.55C6.88315 12.2071 7.83798 13.7113 9.08513 14.9533C10.3323 16.1952 11.8404 17.1438 13.5 17.73C14.28 18.09 14.64 17.41 15.09 16.55L15.36 16L20 17.07L20 17.4Z" fill="#A5BEF7"/>
</g>
<defs>
<clipPath id="clip0_1942_6070">
<rect width="24" height="24" fill="white" transform="matrix(-1.19249e-08 -1 -1 1.19249e-08 24 24)"/>
</clipPath>
</defs>
</svg>
