<svg width="34" height="40" viewBox="0 0 34 40" fill="none" xmlns="http://www.w3.org/2000/svg">
<path d="M29.8334 39H4.16669C2.50983 39 1.10679 37.6386 1.42479 36.0125C2.52666 30.3783 7.23273 28.8667 17 28.8667C26.7673 28.8667 31.4734 30.3783 32.5752 36.0125C32.8932 37.6386 31.4902 39 29.8334 39Z" stroke="#FDFDFD" stroke-width="2" stroke-linejoin="round"/>
<path d="M25.0222 13.0635C25.0222 17.594 22.6972 22.5333 17 22.5333C11.3028 22.5333 8.97779 17.594 8.97779 13.0635M4.96667 12.2794C4.96667 12.2794 12.2359 12.2794 17 12.2794C21.7641 12.2794 29.0333 12.2794 29.0333 12.2794M26.025 12.2794C26.025 7.74888 23.0167 3.05079 17 3.05079M17 3.05079C10.9833 3.05079 7.97501 7.74888 7.97501 12.2794M17 3.05079V1M17 3.05079V5.10159" stroke="#FDFDFD" stroke-width="2" stroke-linecap="round"/>
<path d="M26.5 12.3999H8.13336L10.6667 6.06657L17 2.8999L24.6 6.6999L26.5 12.3999Z" fill="#FDFDFD"/>
</svg>
