<svg width="86" height="102" viewBox="0 0 86 102" fill="none" xmlns="http://www.w3.org/2000/svg">
<path d="M61.4836 35.9814L61.483 35.9977V36.0141C61.4831 40.8024 59.4145 45.7355 56.0348 49.4738C52.6588 53.208 48.043 55.678 43.0001 55.678C37.9571 55.678 33.3413 53.208 29.9653 49.4738C26.5856 45.7355 24.517 40.8023 24.5169 36.0141L24.5169 35.9977L24.5164 35.9814L23.9113 17.5243C23.615 8.48713 30.8606 1 39.9027 1H46.0973C55.1394 1 62.385 8.48712 62.0887 17.5243L61.4836 35.9814Z" stroke="#D5DAE3" stroke-width="2"/>
<path d="M61.3023 25.9775H64.0254C65.13 25.9775 66.0254 26.873 66.0254 27.9775V32.7302C66.0254 34.6294 63.9108 36.6047 61.3022 36.6047" stroke="#D5DAE3" stroke-width="2"/>
<path d="M24.6977 25.9775H21.9746C20.87 25.9775 19.9746 26.873 19.9746 27.9775V32.7302C19.9746 34.6294 22.0892 36.6047 24.6977 36.6047" stroke="#D5DAE3" stroke-width="2"/>
<path d="M55.2175 83.4746C55.2175 82.9223 55.6652 82.4746 56.2175 82.4746H69.9294C70.4816 82.4746 70.9294 82.9223 70.9294 83.4746V87.7401C70.9294 88.2924 70.4816 88.7401 69.9294 88.7401H56.2175C55.6652 88.7401 55.2175 88.2924 55.2175 87.7401V83.4746Z" stroke="#D5DAE3" stroke-width="2"/>
<path d="M84.9181 101.5V78.1354C84.9181 71.2254 79.8765 65.3489 73.0469 64.2982L54.2175 61.4014L43 67.8957M1.08191 101.5V78.1354C1.08191 71.2254 6.12347 65.3489 12.9531 64.2982L31.7825 61.4014L43 67.8957M43 67.8957V98.729M69.5678 93.2827V98.729M16.4322 93.2827V98.729" stroke="#D5DAE3" stroke-width="2"/>
<path d="M24.6977 62.582L29.69 72.5665C30.4907 74.168 32.507 74.716 34.0082 73.7402L43 67.8956" stroke="#D5DAE3" stroke-width="2"/>
<path d="M60.7119 62.582L55.7196 72.5665C54.9189 74.168 52.9026 74.716 51.4014 73.7402L42.4096 67.8956" stroke="#D5DAE3" stroke-width="2"/>
<path d="M31.7825 50.7744V61.4015M54.2175 50.7744V61.4015" stroke="#D5DAE3" stroke-width="2"/>
<path d="M24.1073 18.8926L25.0478 21.0423C26.8615 25.1877 31.516 27.2906 35.8256 25.9116V25.9116C40.492 24.4183 45.508 24.4183 50.1744 25.9116V25.9116C54.484 27.2906 59.1385 25.1878 60.9522 21.0423L61.8926 18.8926" stroke="#D5DAE3" stroke-width="2"/>
<path d="M37.6864 44.8701V44.8701C40.7167 47.5637 45.2832 47.5637 48.3136 44.8701V44.8701" stroke="#D5DAE3" stroke-width="2" stroke-linecap="round"/>
<path d="M32.9633 33.0625V33.0625C34.0358 32.3475 35.4331 32.3475 36.5056 33.0625V33.0625" stroke="#D5DAE3" stroke-width="2" stroke-linecap="round"/>
<path d="M49.4943 33.0625V33.0625C50.5669 32.3475 51.9642 32.3475 53.0367 33.0625V33.0625" stroke="#D5DAE3" stroke-width="2" stroke-linecap="round"/>
<path d="M61.3022 20.0733C61.3022 20.0733 53.108 16.5309 43 16.5309M24.6977 20.0733C24.6977 20.0733 32.8919 16.5309 43 16.5309M43 16.5309V1.18066" stroke="#D5DAE3" stroke-width="2"/>
</svg>
