<svg width="38" height="38" viewBox="0 0 38 38" fill="none" xmlns="http://www.w3.org/2000/svg">
<path d="M31.6667 17.4166C31.2794 14.6303 29.9869 12.0486 27.988 10.0691C25.9892 8.08972 23.3949 6.8224 20.605 6.4624C17.815 6.1024 14.9841 6.6697 12.5482 8.07691C10.1124 9.48412 8.20681 11.6532 7.12499 14.2499M6.33333 7.91661V14.2499H12.6667M6.33333 20.5833C6.78724 23.858 8.48912 26.8306 11.0833 28.8799" stroke="#FDFDFD" stroke-width="2" stroke-linecap="round" stroke-linejoin="round"/>
<path fill-rule="evenodd" clip-rule="evenodd" d="M23.5 36C28.7467 36 33 31.7467 33 26.5C33 21.2533 28.7467 17 23.5 17C18.2533 17 14 21.2533 14 26.5C14 31.7467 18.2533 36 23.5 36ZM17.3043 21.7826C16.7521 21.7826 16.3043 22.2303 16.3043 22.7826C16.3043 23.3349 16.7521 23.7826 17.3043 23.7826H19.9203C20.002 23.7826 20.0803 23.8151 20.1381 23.8728C20.1958 23.9306 20.2283 24.0089 20.2283 24.0906V25.3986C20.2283 25.4802 20.1958 25.5586 20.1381 25.6163C20.0803 25.6741 20.002 25.7065 19.9203 25.7065H18.6123C18.0002 25.7065 17.4132 25.9497 16.9803 26.3825C16.5475 26.8153 16.3043 27.4024 16.3043 28.0145V29.3225C16.3043 29.9346 16.5475 30.5216 16.9803 30.9544C17.4132 31.3873 18.0002 31.6304 18.6123 31.6304H21.2283C21.7805 31.6304 22.2283 31.1827 22.2283 30.6304C22.2283 30.0781 21.7805 29.6304 21.2283 29.6304H18.6123C18.5306 29.6304 18.4523 29.598 18.3946 29.5402C18.3368 29.4825 18.3043 29.4041 18.3043 29.3225V28.0145C18.3043 27.9328 18.3368 27.8545 18.3946 27.7967C18.4523 27.739 18.5306 27.7065 18.6123 27.7065H19.9203C20.5324 27.7065 21.1194 27.4634 21.5523 27.0305C21.9851 26.5977 22.2283 26.0107 22.2283 25.3986V24.0906C22.2283 23.4785 21.9851 22.8914 21.5523 22.4586C21.1194 22.0258 20.5324 21.7826 19.9203 21.7826H17.3043ZM26.1522 22.7826C26.1522 22.2303 25.7045 21.7826 25.1522 21.7826C24.5999 21.7826 24.1522 22.2303 24.1522 22.7826V25.3986C24.1522 26.0107 24.3953 26.5977 24.8282 27.0305C25.261 27.4634 25.848 27.7065 26.4601 27.7065H27.7681C27.8756 27.7065 27.9791 27.6896 28.0761 27.6582V30.6304C28.0761 31.1827 28.5238 31.6304 29.0761 31.6304C29.6284 31.6304 30.0761 31.1827 30.0761 30.6304V22.7826C30.0761 22.2303 29.6284 21.7826 29.0761 21.7826C28.5238 21.7826 28.0761 22.2303 28.0761 22.7826V25.7548C27.9791 25.7235 27.8756 25.7065 27.7681 25.7065H26.4601C26.3785 25.7065 26.3001 25.6741 26.2424 25.6163C26.1846 25.5586 26.1522 25.4802 26.1522 25.3986V22.7826Z" fill="#FDFDFD"/>
</svg>
