<svg width="154" height="99" viewBox="0 0 154 99" fill="none" xmlns="http://www.w3.org/2000/svg">
<path d="M1 3.88379C1 2.77922 1.89543 1.88379 3 1.88379H95C96.1046 1.88379 97 2.77922 97 3.88379V84.8838C97 85.9884 96.1046 86.8838 95 86.8838H3C1.89543 86.8838 1 85.9884 1 84.8838V3.88379Z" fill="#313A4E" stroke="#D5DAE3" stroke-width="2"/>
<path d="M1 66.8838C1 65.7792 1.89543 64.8838 3 64.8838H95C96.1046 64.8838 97 65.7792 97 66.8838V84.8838C97 85.9884 96.1046 86.8838 95 86.8838H3C1.89543 86.8838 1 85.9884 1 84.8838V66.8838Z" fill="#313A4E" stroke="#D5DAE3" stroke-width="2"/>
<path d="M86 33.8838C86 33.3315 85.5523 32.8838 85 32.8838H33C32.4477 32.8838 32 33.3315 32 33.8838V63.8838C32 64.4361 32.4477 64.8838 33 64.8838H85C85.5523 64.8838 86 64.4361 86 63.8838V33.8838Z" fill="#313A4E" stroke="#D5DAE3" stroke-width="2"/>
<rect x="-1" y="1" width="28" height="27" rx="1" transform="matrix(-1 0 0 1 80 4.88379)" fill="#313A4E" stroke="#D5DAE3" stroke-width="2"/>
<path d="M73 6.17285C73 5.62057 72.5523 5.17285 72 5.17285H61.9111C61.3588 5.17285 60.9111 5.62057 60.9111 6.17285V19.7951C60.9111 20.6191 61.8519 21.0895 62.5111 20.5951L66.3556 17.7117C66.7111 17.4451 67.2 17.4451 67.5556 17.7117L71.4 20.5951C72.0592 21.0895 73 20.6191 73 19.7951V6.17285Z" fill="#D5DAE3"/>
<path d="M59 33.373C59 32.8208 58.5523 32.373 58 32.373H47.9111C47.3588 32.373 46.9111 32.8208 46.9111 33.373V46.9953C46.9111 47.8193 47.8519 48.2897 48.5111 47.7953L52.3556 44.9119C52.7111 44.6453 53.2 44.6453 53.5556 44.9119L57.4 47.7953C58.0592 48.2897 59 47.8193 59 46.9953V33.373Z" fill="#D5DAE3"/>
<path d="M97 50.8838C97 49.7792 97.8954 48.8838 99 48.8838H151C152.105 48.8838 153 49.7792 153 50.8838V84.8838C153 85.9884 152.105 86.8838 151 86.8838H99C97.8954 86.8838 97 85.9884 97 84.8838V50.8838Z" fill="#313A4E" stroke="#D5DAE3" stroke-width="2"/>
<path d="M97 25.8838H134.993L151.837 48.8838H97V25.8838Z" fill="#313A4E" stroke="#D5DAE3" stroke-width="2"/>
<path d="M26 86.8838C26 80.8087 30.9249 75.8838 37 75.8838C43.0751 75.8838 48 80.8087 48 86.8838C48 92.9589 43.0751 97.8838 37 97.8838C30.9249 97.8838 26 92.9589 26 86.8838Z" fill="#313A4E" stroke="#D5DAE3" stroke-width="2"/>
<path d="M112 86.8838C112 80.8087 116.925 75.8838 123 75.8838C129.075 75.8838 134 80.8087 134 86.8838C134 92.9589 129.075 97.8838 123 97.8838C116.925 97.8838 112 92.9589 112 86.8838Z" fill="#313A4E" stroke="#D5DAE3" stroke-width="2"/>
</svg>
