<svg width="82" height="101" viewBox="0 0 82 101" fill="none" xmlns="http://www.w3.org/2000/svg">
<mask id="path-1-inside-1_288_13196" fill="white">
<path fill-rule="evenodd" clip-rule="evenodd" d="M21.8639 47.105C21.7593 46.7197 21.5912 46.3539 21.3639 46.0257C18.7367 42.2317 17.1975 37.6271 17.1975 32.663V29.4092C17.1975 16.4305 27.7188 5.90918 40.6975 5.90918C53.6762 5.90918 64.1975 16.4305 64.1975 29.4092V32.663C64.1975 38.5172 62.0568 43.8715 58.5156 47.9857C58.2554 48.288 58.0501 48.6336 57.9057 49.0053C55.1441 56.1136 48.2568 61.1884 40.1975 61.1884C31.4367 61.1884 24.0609 55.1918 21.8639 47.105Z"/>
</mask>
<path fill-rule="evenodd" clip-rule="evenodd" d="M21.8639 47.105C21.7593 46.7197 21.5912 46.3539 21.3639 46.0257C18.7367 42.2317 17.1975 37.6271 17.1975 32.663V29.4092C17.1975 16.4305 27.7188 5.90918 40.6975 5.90918C53.6762 5.90918 64.1975 16.4305 64.1975 29.4092V32.663C64.1975 38.5172 62.0568 43.8715 58.5156 47.9857C58.2554 48.288 58.0501 48.6336 57.9057 49.0053C55.1441 56.1136 48.2568 61.1884 40.1975 61.1884C31.4367 61.1884 24.0609 55.1918 21.8639 47.105Z" fill="#313A4E"/>
<path d="M57.9057 49.0053L59.77 49.7296L57.9057 49.0053ZM21.3639 46.0257L19.7196 47.1642L21.3639 46.0257ZM21.8639 47.105L19.9339 47.6294L21.8639 47.105ZM15.1975 32.663C15.1975 38.0469 16.8683 43.0466 19.7196 47.1642L23.0081 44.8871C20.6051 41.4169 19.1975 37.2073 19.1975 32.663H15.1975ZM15.1975 29.4092V32.663H19.1975V29.4092H15.1975ZM40.6975 3.90918C26.6142 3.90918 15.1975 15.3259 15.1975 29.4092H19.1975C19.1975 17.5351 28.8234 7.90918 40.6975 7.90918V3.90918ZM66.1975 29.4092C66.1975 15.3259 54.7808 3.90918 40.6975 3.90918V7.90918C52.5716 7.90918 62.1975 17.5351 62.1975 29.4092H66.1975ZM66.1975 32.663V29.4092H62.1975V32.663H66.1975ZM60.0314 49.2904C63.8732 44.8271 66.1975 39.0139 66.1975 32.663H62.1975C62.1975 38.0205 60.2405 42.9159 56.9997 46.681L60.0314 49.2904ZM40.1975 63.1884C49.1194 63.1884 56.7234 57.5714 59.77 49.7296L56.0415 48.281C53.5648 54.6559 47.3942 59.1884 40.1975 59.1884V63.1884ZM19.9339 47.6294C22.3583 56.5536 30.4998 63.1884 40.1975 63.1884V59.1884C32.3737 59.1884 25.7634 53.83 23.794 46.5807L19.9339 47.6294ZM56.9997 46.681C56.5872 47.1603 56.2659 47.7034 56.0415 48.281L59.77 49.7296C59.8344 49.5637 59.9237 49.4156 60.0314 49.2904L56.9997 46.681ZM19.7196 47.1642C19.8137 47.3001 19.8871 47.4572 19.9339 47.6294L23.794 46.5807C23.6314 45.9823 23.3686 45.4076 23.0081 44.8871L19.7196 47.1642Z" fill="#D5DAE3" mask="url(#path-1-inside-1_288_13196)"/>
<rect x="1" y="1" width="32.1726" height="13" rx="2" transform="matrix(-4.37114e-08 1 1 4.37114e-08 33.1975 0.883789)" fill="#313A4E" stroke="#D5DAE3" stroke-width="2"/>
<rect x="1" y="-1" width="57" height="11.066" rx="2" transform="matrix(1 0 0 -1 11.1975 36.0723)" fill="#313A4E" stroke="#D5DAE3" stroke-width="2"/>
<path d="M19.1975 93.854L14.6975 65.7119C2.14696 76.5742 0.332443 86.6984 1.17681 91.8924C1.37395 93.1051 2.50376 93.854 3.73238 93.854H19.1975Z" fill="#313A4E" stroke="#D5DAE3" stroke-width="2"/>
<path d="M62.1976 94.356L66.6976 66.2139C79.2481 77.0761 81.0626 87.2003 80.2182 92.3944C80.0211 93.6071 78.8913 94.356 77.6626 94.356H62.1976Z" fill="#313A4E" stroke="#D5DAE3" stroke-width="2"/>
<path d="M16.9328 59.1709L15.3774 60.604C14.6402 61.2831 14.2909 62.2856 14.4465 63.2759L14.8291 65.7113L14.8452 65.8141L19.2501 93.8534L19.7994 97.3495C20.0286 98.8087 21.2859 99.8839 22.763 99.8839H58.6191C60.1018 99.8839 61.3622 98.8007 61.585 97.3347L66.4901 65.0658C66.6217 64.1997 66.3682 63.3193 65.7961 62.6558L63.4886 59.9797C62.0036 58.2576 59.2173 58.7492 58.4113 60.8756L52.9316 75.333C52.4897 76.4987 51.373 77.2697 50.1263 77.2697H30.2687C29.022 77.2697 27.9053 76.4987 27.4634 75.333L22.2927 61.691L21.7708 60.314C21.0178 58.3274 18.4953 57.7314 16.9328 59.1709Z" fill="#313A4E" stroke="#D5DAE3" stroke-width="2"/>
<path d="M22.6975 62.1936L26.072 61.4399C26.7686 61.2843 27.4946 61.5176 27.9945 62.027C37.263 71.4694 46.0535 69.697 52.7603 62.2781C53.3355 61.6419 54.2377 61.3921 55.0404 61.6946L57.6975 62.6961L52.9737 75.9415C52.6896 76.7379 51.9354 77.2697 51.0899 77.2697H28.9619C28.0912 77.2697 27.3206 76.7064 27.0563 75.8767L22.6975 62.1936Z" fill="#313A4E" stroke="#D5DAE3" stroke-width="2"/>
<rect width="9" height="2.01015" rx="1.00508" transform="matrix(1 0 0 -1 20 20.9854)" fill="#D5DAE3"/>
<rect width="9" height="2.01015" rx="1.00508" transform="matrix(1 0 0 -1 53 20.9854)" fill="#D5DAE3"/>
<rect width="4" height="4" rx="2" transform="matrix(1 0 0 -1 38 85.8838)" fill="#D5DAE3"/>
<rect width="4" height="4" rx="2" transform="matrix(1 0 0 -1 38 92.8838)" fill="#D5DAE3"/>
</svg>
